<svg width="24" height="24" viewBox="0 0 24 24" fill="none" xmlns="http://www.w3.org/2000/svg">
<path fill-rule="evenodd" clip-rule="evenodd" d="M20.75 5.75C20.75 5.94891 20.671 6.13968 20.5303 6.28033C20.3897 6.42098 20.1989 6.5 20 6.5H4C3.80109 6.5 3.61032 6.42098 3.46967 6.28033C3.32902 6.13968 3.25 5.94891 3.25 5.75C3.25 5.55109 3.32902 5.36032 3.46967 5.21967C3.61032 5.07902 3.80109 5 4 5H20C20.1989 5 20.3897 5.07902 20.5303 5.21967C20.671 5.36032 20.75 5.55109 20.75 5.75ZM13.75 11.75C13.75 11.9489 13.671 12.1397 13.5303 12.2803C13.3897 12.421 13.1989 12.5 13 12.5H4C3.80109 12.5 3.61032 12.421 3.46967 12.2803C3.32902 12.1397 3.25 11.9489 3.25 11.75C3.25 11.5511 3.32902 11.3603 3.46967 11.2197C3.61032 11.079 3.80109 11 4 11H13C13.1989 11 13.3897 11.079 13.5303 11.2197C13.671 11.3603 13.75 11.5511 13.75 11.75ZM20 18.5C20.1989 18.5 20.3897 18.421 20.5303 18.2803C20.671 18.1397 20.75 17.9489 20.75 17.75C20.75 17.5511 20.671 17.3603 20.5303 17.2197C20.3897 17.079 20.1989 17 20 17H4C3.80109 17 3.61032 17.079 3.46967 17.2197C3.32902 17.3603 3.25 17.5511 3.25 17.75C3.25 17.9489 3.32902 18.1397 3.46967 18.2803C3.61032 18.421 3.80109 18.5 4 18.5H20Z" fill="#F6F7F9"/>
</svg>
