<svg width="270" height="270" viewBox="0 0 270 270" fill="none" xmlns="http://www.w3.org/2000/svg">
<g clip-path="url(#clip0_2449_11)">
<path d="M135 270C209.558 270 270 209.558 270 135C270 60.4416 209.558 0 135 0C60.4416 0 0 60.4416 0 135C0 209.558 60.4416 270 135 270Z" fill="white"/>
<path d="M124.376 76L106.282 86.4571L148.154 110.669L103.061 136.576L61.1888 112.364L43 122.727L85.0616 147.033V200.449L94.156 196.021L103.156 211V157.207L166.153 121.031L208.12 145.243L226.214 134.88L124.376 76Z" fill="#3C3C3B"/>
<path d="M110.828 161.918L144.837 181.607L162.932 171.15L129.017 151.555L110.828 161.918Z" fill="#3C3C3B"/>
</g>
<defs>
<clipPath id="clip0_2449_11">
<rect width="270" height="270" fill="white"/>
</clipPath>
</defs>
</svg>
